<svg width="21" height="20" viewBox="0 0 21 20" fill="none" xmlns="http://www.w3.org/2000/svg">
<path fill-rule="evenodd" clip-rule="evenodd" d="M0.242676 10C0.242676 15.5228 4.71983 20 10.2427 20C15.7655 20 20.2427 15.5228 20.2427 10C20.2427 4.47715 15.7655 0 10.2427 0C4.71983 0 0.242676 4.47715 0.242676 10ZM18.4245 9.99997C18.4245 14.5187 14.7613 18.1818 10.2426 18.1818C5.72395 18.1818 2.06083 14.5187 2.06083 9.99997C2.06083 5.48128 5.72395 1.81815 10.2426 1.81815C14.7613 1.81815 18.4245 5.48128 18.4245 9.99997Z" fill="url(#paint0_linear_240_20)"/>
<path fill-rule="evenodd" clip-rule="evenodd" d="M6.22541 8.65504C6.64474 8.29562 7.27604 8.34418 7.63546 8.76351L9.87129 11.372L13.9253 6.58086C14.2821 6.15925 14.913 6.10667 15.3346 6.46341C15.7563 6.82016 15.8088 7.45114 15.4521 7.87274L11.0188 13.1121C10.4221 13.8172 9.33602 13.8207 8.73486 13.1193L6.11695 10.0651C5.75752 9.64577 5.80608 9.01447 6.22541 8.65504Z" fill="url(#paint1_linear_240_20)"/>
<defs>
<linearGradient id="paint0_linear_240_20" x1="3.24268" y1="1.00018" x2="10.2427" y2="20" gradientUnits="userSpaceOnUse">
<stop stop-color="#0CD38B"/>
<stop offset="1" stop-color="#0CB477"/>
</linearGradient>
<linearGradient id="paint1_linear_240_20" x1="8.24268" y1="6.50024" x2="9.75156" y2="14.8596" gradientUnits="userSpaceOnUse">
<stop stop-color="#0CD38B"/>
<stop offset="1" stop-color="#0CB477"/>
</linearGradient>
</defs>
</svg>
